<svg width="142" height="27" viewBox="0 0 142 27" fill="none" xmlns="http://www.w3.org/2000/svg">
<rect opacity="0.2" width="27" height="27" rx="7.40571" fill="#1ED481"/>
<path d="M13.5003 2.46875V24.5316C10.4403 22.8954 4.32031 17.4978 4.32031 8.99652C9.96577 8.08567 11.7821 5.90975 13.5003 2.46875Z" fill="url(#paint0_linear_2345_11137)"/>
<path d="M13.5003 2.46875V24.5316C16.5603 22.8954 22.6803 17.4978 22.6803 8.99652C17.0349 8.08567 15.2185 5.90975 13.5003 2.46875Z" fill="url(#paint1_linear_2345_11137)"/>
<path d="M13.5003 2.46875V24.5316C16.5603 22.8954 22.6803 17.4978 22.6803 8.99652C17.0349 8.08567 15.2185 5.90975 13.5003 2.46875Z" fill="url(#paint2_linear_2345_11137)"/>
<path d="M47.4213 6.43945H50.5306L54.6946 16.6028H54.8589L59.0229 6.43945H62.1322V20.4654H59.6941V10.8294H59.5639L55.6876 20.4243H53.8659L49.9896 10.8089H49.8594V20.4654H47.4213V6.43945Z" fill="#F8FFFC"/>
<path d="M64.899 20.4654V6.43945H67.4398V18.3355H73.6173V20.4654H64.899Z" fill="#F8FFFC"/>
<path fill-rule="evenodd" clip-rule="evenodd" d="M35.2667 20.4654H32.5547L37.4925 6.43945H40.6292L45.5739 20.4654H42.8619L41.6998 17.0069H36.4267L35.2667 20.4654ZM39.0061 9.31587H39.1157L41.0141 14.966H37.1111L37.1364 14.8907L39.0061 9.31587Z" fill="#F8FFFC"/>
<path d="M85.4496 10.2956C85.3857 9.69747 85.1163 9.23176 84.6415 8.89846C84.1712 8.56516 83.5594 8.39851 82.8061 8.39851C82.2764 8.39851 81.8221 8.47841 81.4432 8.63822C81.0642 8.79802 80.7743 9.01489 80.5734 9.28883C80.3725 9.56278 80.2698 9.87553 80.2652 10.2271C80.2652 10.5193 80.3314 10.7727 80.4638 10.9873C80.6008 11.2019 80.7857 11.3845 81.0186 11.5352C81.2514 11.6813 81.5094 11.8046 81.7925 11.905C82.0755 12.0055 82.3609 12.0899 82.6485 12.1584L83.9635 12.4871C84.4931 12.6104 85.0022 12.7771 85.4907 12.9871C85.9838 13.1971 86.4244 13.4619 86.8125 13.7815C87.2052 14.1011 87.5156 14.4869 87.7439 14.9389C87.9722 15.391 88.0863 15.9206 88.0863 16.5278C88.0863 17.3497 87.8763 18.0733 87.4563 18.6988C87.0362 19.3198 86.429 19.806 85.6345 20.1576C84.8447 20.5046 83.8881 20.6781 82.765 20.6781C81.6738 20.6781 80.7264 20.5092 79.9228 20.1713C79.1238 19.8334 78.4983 19.3403 78.0463 18.692C77.5988 18.0437 77.3568 17.2538 77.3203 16.3224H79.8201C79.8566 16.8109 80.0073 17.2173 80.2721 17.5414C80.5369 17.8656 80.8816 18.1076 81.3062 18.2674C81.7354 18.4272 82.2148 18.5071 82.7444 18.5071C83.2969 18.5071 83.7808 18.4249 84.1963 18.2605C84.6164 18.0916 84.9451 17.8587 85.1825 17.562C85.4199 17.2606 85.5409 16.9091 85.5455 16.5073C85.5409 16.142 85.4336 15.8407 85.2236 15.6033C85.0136 15.3613 84.7191 15.1604 84.3401 15.0006C83.9658 14.8362 83.5274 14.6901 83.0252 14.5623L81.4295 14.1514C80.2744 13.8546 79.3612 13.4049 78.69 12.8022C78.0234 12.1949 77.6901 11.3891 77.6901 10.3846C77.6901 9.55821 77.9139 8.83454 78.3613 8.2136C78.8133 7.59266 79.4274 7.11097 80.2036 6.76854C80.9798 6.42155 81.8587 6.24805 82.8403 6.24805C83.8356 6.24805 84.7077 6.42155 85.4565 6.76854C86.2098 7.11097 86.8011 7.58809 87.2303 8.1999C87.6594 8.80715 87.8809 9.50571 87.8946 10.2956H85.4496Z" fill="#F8FFFC"/>
<path d="M106.263 20.6712C105.212 20.6712 104.311 20.4407 103.557 19.9795C102.809 19.5184 102.231 18.8815 101.825 18.0688C101.423 17.2515 101.222 16.311 101.222 15.2471C101.222 14.1788 101.427 13.2359 101.838 12.4187C102.249 11.5968 102.829 10.9576 103.578 10.501C104.331 10.0399 105.222 9.80933 106.249 9.80933C107.103 9.80933 107.858 9.96685 108.516 10.2819C109.178 10.5924 109.705 11.033 110.098 11.6037C110.49 12.1698 110.714 12.8319 110.769 13.5898H108.399C108.303 13.083 108.075 12.6606 107.714 12.3228C107.358 11.9803 106.881 11.8091 106.283 11.8091C105.776 11.8091 105.331 11.9461 104.948 12.22C104.564 12.4894 104.265 12.8775 104.05 13.3843C103.84 13.8911 103.735 14.4984 103.735 15.206C103.735 15.9229 103.84 16.5392 104.05 17.0552C104.261 17.5665 104.555 17.9615 104.934 18.24C105.317 18.5139 105.767 18.6509 106.283 18.6509C106.648 18.6509 106.975 18.5824 107.262 18.4454C107.555 18.3039 107.799 18.1007 107.995 17.8359C108.192 17.5711 108.326 17.2492 108.399 16.8703H110.769C110.71 17.6145 110.49 18.2742 110.112 18.8495C109.733 19.4202 109.217 19.8677 108.564 20.1918C107.911 20.5114 107.144 20.6712 106.263 20.6712Z" fill="#F8FFFC"/>
<path d="M119.51 16.0416V9.9463H121.989V20.4658H119.585V18.5961H119.475C119.238 19.1851 118.847 19.6668 118.304 20.0412C117.765 20.4156 117.101 20.6028 116.311 20.6028C115.622 20.6028 115.012 20.4498 114.483 20.1439C113.958 19.8334 113.547 19.3837 113.25 18.7947C112.953 18.2012 112.805 17.4844 112.805 16.6443V9.9463H115.284V16.2607C115.284 16.9273 115.467 17.457 115.832 17.8496C116.197 18.2423 116.676 18.4386 117.27 18.4386C117.635 18.4386 117.989 18.3496 118.332 18.1715C118.674 17.9934 118.955 17.7286 119.174 17.3771C119.398 17.0209 119.51 16.5758 119.51 16.0416Z" fill="#F8FFFC"/>
<path d="M124.538 20.4658V9.9463H126.942V11.6995H127.052C127.243 11.0923 127.572 10.6243 128.038 10.2956C128.508 9.96228 129.045 9.79563 129.647 9.79563C129.784 9.79563 129.937 9.80248 130.106 9.81618C130.28 9.82531 130.423 9.84129 130.538 9.86412V12.1447C130.433 12.1082 130.266 12.0762 130.038 12.0488C129.814 12.0169 129.597 12.0009 129.387 12.0009C128.935 12.0009 128.529 12.0991 128.168 12.2954C127.812 12.4871 127.531 12.7542 127.326 13.0967C127.12 13.4391 127.017 13.834 127.017 14.2815V20.4658H124.538Z" fill="#F8FFFC"/>
<path fill-rule="evenodd" clip-rule="evenodd" d="M94.899 20.6712C93.8443 20.6712 92.9335 20.4521 92.1664 20.0138C91.4039 19.5709 90.8172 18.9454 90.4063 18.1373C89.9954 17.3246 89.7899 16.368 89.7899 15.2677C89.7899 14.1856 89.9954 13.2359 90.4063 12.4187C90.8218 11.5968 91.4016 10.9576 92.1459 10.501C92.8901 10.0399 93.7644 9.80933 94.7689 9.80933C95.4172 9.80933 96.029 9.91434 96.6043 10.1244C97.1842 10.3298 97.6955 10.6494 98.1384 11.0832C98.5858 11.5169 98.9374 12.0694 99.1931 12.7405C99.4488 13.4071 99.5766 14.2016 99.5766 15.1239V15.8841H92.249C92.2563 16.4696 92.368 16.9741 92.5842 17.3976C92.8079 17.8313 93.1207 18.1646 93.5224 18.3975C93.9242 18.6258 94.3945 18.7399 94.9333 18.7399C95.2939 18.7399 95.6204 18.6897 95.9126 18.5893C96.2048 18.4843 96.4582 18.3313 96.6728 18.1304C96.8874 17.9295 97.0495 17.6807 97.1591 17.3839L99.4739 17.6442C99.3278 18.256 99.0493 18.7902 98.6384 19.2467C98.232 19.6987 97.7115 20.0503 97.0769 20.3014C96.4422 20.548 95.7163 20.6712 94.899 20.6712ZM96.892 12.946C97.0928 13.3158 97.1956 13.7382 97.2001 14.213H92.2536C92.2775 13.8009 92.3831 13.4196 92.5705 13.0693C92.7851 12.6721 93.0841 12.3525 93.4676 12.1105C93.8512 11.8639 94.2963 11.7406 94.8031 11.7406C95.278 11.7406 95.6934 11.8479 96.0496 12.0625C96.4103 12.2771 96.6911 12.5716 96.892 12.946Z" fill="#F8FFFC"/>
<path fill-rule="evenodd" clip-rule="evenodd" d="M136.408 20.6712C135.354 20.6712 134.443 20.4521 133.676 20.0138C132.913 19.5709 132.327 18.9454 131.916 18.1373C131.505 17.3246 131.299 16.368 131.299 15.2677C131.299 14.1856 131.505 13.2359 131.916 12.4187C132.331 11.5968 132.911 10.9576 133.655 10.501C134.4 10.0399 135.274 9.80933 136.278 9.80933C136.927 9.80933 137.539 9.91434 138.114 10.1244C138.694 10.3298 139.205 10.6494 139.648 11.0832C140.095 11.5169 140.447 12.0694 140.703 12.7405C140.958 13.4071 141.086 14.2016 141.086 15.1239V15.8841H133.758C133.766 16.4696 133.877 16.9741 134.094 17.3976C134.317 17.8313 134.63 18.1646 135.032 18.3975C135.434 18.6258 135.904 18.7399 136.443 18.7399C136.803 18.7399 137.13 18.6897 137.422 18.5893C137.714 18.4843 137.968 18.3313 138.182 18.1304C138.397 17.9295 138.559 17.6807 138.669 17.3839L140.983 17.6442C140.837 18.256 140.559 18.7902 140.148 19.2467C139.741 19.6987 139.221 20.0503 138.586 20.3014C137.952 20.548 137.226 20.6712 136.408 20.6712ZM138.401 12.946C138.602 13.3158 138.705 13.7382 138.71 14.213H133.763C133.787 13.8009 133.893 13.4196 134.08 13.0693C134.295 12.6721 134.594 12.3525 134.977 12.1105C135.361 11.8639 135.806 11.7406 136.313 11.7406C136.787 11.7406 137.203 11.8479 137.559 12.0625C137.92 12.2771 138.201 12.5716 138.401 12.946Z" fill="#F8FFFC"/>
<defs>
<linearGradient id="paint0_linear_2345_11137" x1="13.5003" y1="2.46875" x2="13.5003" y2="24.5316" gradientUnits="userSpaceOnUse">
<stop stop-color="#24E88F"/>
<stop offset="1" stop-color="#18C174"/>
</linearGradient>
<linearGradient id="paint1_linear_2345_11137" x1="13.5003" y1="2.46875" x2="13.5003" y2="24.5316" gradientUnits="userSpaceOnUse">
<stop stop-color="#24E88F"/>
<stop offset="1" stop-color="#18C174"/>
</linearGradient>
<linearGradient id="paint2_linear_2345_11137" x1="13.5003" y1="2.46875" x2="13.5003" y2="24.5316" gradientUnits="userSpaceOnUse">
<stop stop-color="#18C174"/>
<stop offset="0.5" stop-color="#1ED481"/>
<stop offset="1" stop-color="#24E88F"/>
</linearGradient>
</defs>
</svg>
