<svg width="481" height="93" viewBox="0 0 481 93" fill="none" xmlns="http://www.w3.org/2000/svg">
<rect opacity="0.2" x="0.132812" y="0.183594" width="92" height="92" rx="25.2343" fill="#1ED481"/>
<path d="M46.1316 8.5957V83.7728C35.7049 78.1978 14.8516 59.8058 14.8516 30.8385C34.0879 27.7348 40.277 20.3206 46.1316 8.5957Z" fill="url(#paint0_linear_2339_6022)"/>
<path d="M46.1316 8.5957V83.7728C56.5582 78.1978 77.4116 59.8058 77.4116 30.8385C58.1752 27.7348 51.9861 20.3206 46.1316 8.5957Z" fill="url(#paint1_linear_2339_6022)"/>
<path d="M46.1316 8.5957V83.7728C56.5582 78.1978 77.4116 59.8058 77.4116 30.8385C58.1752 27.7348 51.9861 20.3206 46.1316 8.5957Z" fill="url(#paint2_linear_2339_6022)"/>
<path d="M161.715 22.1289H172.31L186.498 56.7596H187.058L201.247 22.1289H211.841V69.9211H203.533V37.0873H203.09L189.882 69.7811H183.675L170.466 37.0173H170.023V69.9211H161.715V22.1289Z" fill="#F8FFFC"/>
<path d="M221.269 69.9211V22.1289H229.927V62.6636H250.976V69.9211H221.269Z" fill="#F8FFFC"/>
<path fill-rule="evenodd" clip-rule="evenodd" d="M120.3 69.9211H111.059L127.884 22.1289H138.572L155.42 69.9211H146.179L142.22 58.1364H124.252L120.3 69.9211ZM133.041 31.93H133.415L139.883 51.1823H126.584L126.67 50.9256L133.041 31.93Z" fill="#F8FFFC"/>
<path d="M291.294 35.2662C291.076 33.2282 290.158 31.6413 288.54 30.5057C286.938 29.37 284.853 28.8021 282.286 28.8021C280.481 28.8021 278.933 29.0744 277.642 29.6189C276.351 30.1634 275.363 30.9024 274.678 31.8358C273.994 32.7693 273.644 33.8349 273.628 35.0329C273.628 36.0285 273.854 36.892 274.305 37.6231C274.772 38.3543 275.402 38.9766 276.195 39.49C276.989 39.9879 277.868 40.4079 278.832 40.7502C279.797 41.0924 280.769 41.3803 281.749 41.6136L286.23 42.7337C288.034 43.1538 289.769 43.7216 291.434 44.4373C293.114 45.1529 294.615 46.0552 295.938 47.1443C297.275 48.2333 298.333 49.5479 299.111 51.088C299.889 52.6282 300.278 54.4329 300.278 56.502C300.278 59.3023 299.562 61.7682 298.131 63.8995C296.7 66.0153 294.631 67.6722 291.924 68.8701C289.232 70.0525 285.973 70.6436 282.146 70.6436C278.428 70.6436 275.2 70.068 272.461 68.9168C269.739 67.7655 267.608 66.0853 266.067 63.8762C264.543 61.667 263.718 58.9756 263.594 55.8019H272.111C272.236 57.4666 272.749 58.8512 273.652 59.9557C274.554 61.0603 275.728 61.8848 277.175 62.4294C278.638 62.9739 280.271 63.2461 282.076 63.2461C283.958 63.2461 285.607 62.9661 287.023 62.406C288.454 61.8304 289.575 61.037 290.384 60.0257C291.193 58.999 291.605 57.801 291.62 56.432C291.605 55.1874 291.239 54.1606 290.524 53.3516C289.808 52.5271 288.804 51.8426 287.513 51.2981C286.237 50.738 284.744 50.2402 283.033 49.8046L277.595 48.4044C273.659 47.3932 270.548 45.8608 268.261 43.8072C265.99 41.7381 264.854 38.9922 264.854 35.5696C264.854 32.7537 265.616 30.2879 267.141 28.1721C268.681 26.0563 270.773 24.415 273.418 23.2481C276.063 22.0658 279.058 21.4746 282.403 21.4746C285.794 21.4746 288.766 22.0658 291.317 23.2481C293.884 24.415 295.899 26.0407 297.361 28.1254C298.823 30.1945 299.578 32.5748 299.625 35.2662H291.294Z" fill="#F8FFFC"/>
<path d="M362.212 70.6203C358.634 70.6203 355.561 69.8347 352.994 68.2634C350.443 66.6921 348.475 64.5218 347.09 61.7526C345.721 58.9678 345.037 55.763 345.037 52.1382C345.037 48.4977 345.737 45.2851 347.137 42.5004C348.537 39.7001 350.513 37.522 353.064 35.9663C355.631 34.395 358.665 33.6094 362.165 33.6094C365.074 33.6094 367.649 34.1461 369.889 35.2195C372.145 36.2774 373.942 37.7787 375.28 39.7234C376.618 41.6525 377.38 43.9083 377.567 46.4908H369.493C369.166 44.764 368.388 43.3249 367.159 42.1737C365.946 41.0069 364.32 40.4235 362.282 40.4235C360.555 40.4235 359.038 40.8902 357.731 41.8236C356.425 42.7415 355.406 44.0639 354.674 45.7908C353.959 47.5176 353.601 49.5868 353.601 51.9981C353.601 54.4407 353.959 56.5409 354.674 58.2989C355.39 60.0413 356.393 61.387 357.685 62.336C358.991 63.2695 360.524 63.7362 362.282 63.7362C363.526 63.7362 364.639 63.5028 365.619 63.0361C366.615 62.5538 367.447 61.8615 368.116 60.9592C368.785 60.0569 369.244 58.9601 369.493 57.6688H377.567C377.365 60.2047 376.618 62.4527 375.327 64.4129C374.035 66.3576 372.277 67.8822 370.053 68.9868C367.828 70.0758 365.214 70.6203 362.212 70.6203Z" fill="#F8FFFC"/>
<path d="M407.35 54.8451V34.0761H415.797V69.9202H407.606V63.5495H407.233C406.424 65.5564 405.094 67.1977 403.242 68.4734C401.407 69.7491 399.143 70.387 396.452 70.387C394.102 70.387 392.026 69.8658 390.221 68.8234C388.432 67.7655 387.032 66.2331 386.02 64.2262C385.009 62.2038 384.504 59.7613 384.504 56.8987V34.0761H392.951V55.5919C392.951 57.8633 393.574 59.6679 394.818 61.0059C396.063 62.3438 397.696 63.0128 399.719 63.0128C400.963 63.0128 402.169 62.7094 403.336 62.1027C404.503 61.4959 405.459 60.5936 406.206 59.3957C406.968 58.1822 407.35 56.6654 407.35 54.8451Z" fill="#F8FFFC"/>
<path d="M424.484 69.9202V34.0761H432.675V40.0501H433.048C433.702 37.981 434.822 36.3863 436.409 35.2662C438.011 34.1305 439.839 33.5627 441.893 33.5627C442.359 33.5627 442.881 33.586 443.456 33.6327C444.047 33.6638 444.537 33.7183 444.926 33.796V41.5669C444.569 41.4425 444.001 41.3336 443.223 41.2402C442.461 41.1313 441.722 41.0769 441.006 41.0769C439.466 41.0769 438.081 41.4114 436.852 42.0803C435.639 42.7337 434.682 43.6438 433.982 44.8106C433.282 45.9775 432.932 47.3232 432.932 48.8478V69.9202H424.484Z" fill="#F8FFFC"/>
<path fill-rule="evenodd" clip-rule="evenodd" d="M323.492 70.6203C319.898 70.6203 316.794 69.8736 314.18 68.3801C311.582 66.871 309.583 64.7396 308.183 61.986C306.783 59.2168 306.083 55.9575 306.083 52.2082C306.083 48.5211 306.783 45.2851 308.183 42.5004C309.599 39.7001 311.575 37.522 314.11 35.9663C316.646 34.395 319.626 33.6094 323.048 33.6094C325.257 33.6094 327.342 33.9672 329.302 34.6828C331.278 35.3829 333.02 36.4719 334.529 37.9499C336.054 39.4278 337.252 41.3102 338.123 43.5972C338.994 45.8685 339.43 48.5755 339.43 51.7181V54.3084H314.462C314.487 56.3035 314.867 58.0226 315.604 59.4657C316.366 60.9436 317.432 62.0793 318.801 62.8727C320.17 63.6506 321.772 64.0395 323.608 64.0395C324.837 64.0395 325.95 63.8684 326.945 63.5262C327.941 63.1683 328.804 62.6472 329.536 61.9626C330.267 61.2781 330.819 60.4302 331.192 59.419L339.08 60.3058C338.582 62.3905 337.633 64.2107 336.233 65.7664C334.848 67.3066 333.075 68.5045 330.912 69.3602C328.75 70.2003 326.276 70.6203 323.492 70.6203ZM330.282 44.2973C330.967 45.5574 331.317 46.9965 331.332 48.6144H314.478C314.559 47.2101 314.919 45.9111 315.557 44.7173C316.288 43.3638 317.307 42.2748 318.614 41.4503C319.921 40.6102 321.438 40.1901 323.165 40.1901C324.783 40.1901 326.199 40.5557 327.412 41.2869C328.641 42.0181 329.598 43.0216 330.282 44.2973Z" fill="#F8FFFC"/>
<path fill-rule="evenodd" clip-rule="evenodd" d="M464.931 70.6203C461.338 70.6203 458.234 69.8736 455.62 68.3801C453.022 66.871 451.023 64.7396 449.623 61.986C448.223 59.2168 447.523 55.9575 447.523 52.2082C447.523 48.5211 448.223 45.2851 449.623 42.5004C451.039 39.7001 453.014 37.522 455.55 35.9663C458.086 34.395 461.065 33.6094 464.488 33.6094C466.697 33.6094 468.782 33.9672 470.742 34.6828C472.718 35.3829 474.46 36.4719 475.969 37.9499C477.494 39.4278 478.692 41.3102 479.563 43.5972C480.434 45.8685 480.87 48.5755 480.87 51.7181V54.3084H455.902C455.926 56.3035 456.307 58.0226 457.044 59.4657C457.806 60.9436 458.872 62.0793 460.241 62.8727C461.61 63.6506 463.212 64.0395 465.048 64.0395C466.277 64.0395 467.389 63.8684 468.385 63.5262C469.381 63.1683 470.244 62.6472 470.975 61.9626C471.706 61.2781 472.259 60.4302 472.632 59.419L480.52 60.3058C480.022 62.3905 479.073 64.2107 477.673 65.7664C476.288 67.3066 474.515 68.5045 472.352 69.3602C470.19 70.2003 467.716 70.6203 464.931 70.6203ZM471.722 44.2973C472.407 45.5574 472.757 46.9965 472.772 48.6144H455.917C455.999 47.2101 456.358 45.9111 456.997 44.7173C457.728 43.3638 458.747 42.2748 460.054 41.4503C461.361 40.6102 462.878 40.1901 464.605 40.1901C466.223 40.1901 467.638 40.5557 468.852 41.2869C470.081 42.0181 471.038 43.0216 471.722 44.2973Z" fill="#F8FFFC"/>
<defs>
<linearGradient id="paint0_linear_2339_6022" x1="46.1316" y1="8.5957" x2="46.1316" y2="83.7728" gradientUnits="userSpaceOnUse">
<stop stop-color="#24E88F"/>
<stop offset="1" stop-color="#18C174"/>
</linearGradient>
<linearGradient id="paint1_linear_2339_6022" x1="46.1316" y1="8.5957" x2="46.1316" y2="83.7728" gradientUnits="userSpaceOnUse">
<stop stop-color="#24E88F"/>
<stop offset="1" stop-color="#18C174"/>
</linearGradient>
<linearGradient id="paint2_linear_2339_6022" x1="46.1316" y1="8.5957" x2="46.1316" y2="83.7728" gradientUnits="userSpaceOnUse">
<stop stop-color="#18C174"/>
<stop offset="0.5" stop-color="#1ED481"/>
<stop offset="1" stop-color="#24E88F"/>
</linearGradient>
</defs>
</svg>
