<svg width="294" height="56" viewBox="0 0 294 56" fill="none" xmlns="http://www.w3.org/2000/svg">
<path d="M54.2296 8.53773L52.3081 6.61625C50.3866 4.56736 48.3377 2.51847 45.7777 1.23847C42.831 -0.299308 39.6296 0.0858771 36.4296 0.0858771H12.2221L17.0888 6.61625H46.1599C48.8488 6.61625 51.154 7.12884 53.3303 8.53773C53.7155 8.66514 54.1021 8.66514 54.2296 8.53773ZM59.6073 19.04L57.6858 17.1185C55.7644 15.0696 53.7155 13.0207 51.154 11.7407C48.2088 10.2029 45.0073 10.5866 41.8058 10.5866H20.2903L25.157 17.1185H51.6666C54.357 17.1185 56.6621 17.6311 58.8384 19.04C58.9567 19.1031 59.0888 19.1361 59.2229 19.1361C59.357 19.1361 59.489 19.1031 59.6073 19.04ZM65.6266 29.2844L63.7051 27.3629C61.7851 25.314 59.7347 23.2651 57.1747 21.9851C54.2281 20.4474 51.0266 20.8311 47.8266 20.8311H28.1021L32.9688 27.3644H57.557C60.2459 27.3644 62.551 27.8755 64.7273 29.2844C65.1125 29.4118 65.3703 29.5407 65.6266 29.2844ZM11.711 46.5733L13.6325 48.4948C15.554 50.5437 17.6029 52.5925 20.1644 53.8725C23.1096 55.4103 26.311 55.0266 29.5125 55.0266H53.717L48.8503 48.4948H19.7792C17.0903 48.4948 14.7866 47.9822 12.6088 46.5733C12.2236 46.4459 11.9673 46.4459 11.711 46.5733ZM6.33326 36.0711L8.25326 37.9925C10.1747 40.0414 12.2236 42.0903 14.7851 43.3703C17.7303 44.9081 20.9333 44.5244 24.1333 44.5244H45.6488L40.7821 37.9925H14.2725C11.5836 37.9925 9.27844 37.48 7.10215 36.0711C6.98366 36.0076 6.85135 35.9745 6.71696 35.9745C6.58257 35.9745 6.45174 36.0076 6.33326 36.0711ZM0.441406 25.6992L2.36289 27.6192C4.28289 29.6681 6.33326 31.717 8.89326 32.997C11.8399 34.5348 15.0414 34.1511 18.2414 34.1511H37.9644L33.0977 27.6192H8.50955C5.82067 27.6192 3.51548 27.1066 1.33918 25.6992C0.953999 25.5703 0.697703 25.5703 0.441406 25.6992ZM80.3407 12.7525V42.3703H86.8533V30.1333H99.2562V25.0725H86.8533V18.2281H101.164V12.7525H80.3407ZM117.498 29.3451H107.915C107.944 28.9303 108.027 28.4592 108.164 27.9348C108.33 27.4088 108.594 26.9125 108.953 26.4414C109.363 25.9532 109.872 25.5574 110.446 25.28C111.083 24.9481 111.871 24.7822 112.81 24.7822C114.249 24.7822 115.314 25.1688 116.004 25.9437C116.724 26.7185 117.222 27.8518 117.498 29.3451ZM107.915 33.0785H123.39C123.505 31.4764 123.365 29.8662 122.975 28.3081C122.613 26.8406 121.964 25.459 121.067 24.2429C120.204 23.0491 119.065 22.0814 117.748 21.4222C116.394 20.7037 114.803 20.3437 112.978 20.3437C111.347 20.3437 109.853 20.634 108.498 21.2148C107.199 21.7754 106.028 22.5939 105.055 23.6207C104.07 24.6428 103.308 25.8573 102.815 27.1881C102.28 28.6207 102.013 30.1391 102.027 31.6681C102.027 33.3274 102.275 34.8474 102.773 36.2311C103.262 37.5544 104.009 38.7671 104.972 39.7985C105.938 40.812 107.113 41.6045 108.415 42.1214C109.77 42.6474 111.292 42.9096 112.978 42.9096C115.412 42.9096 117.486 42.357 119.2 41.2503C120.915 40.1437 122.187 38.3051 123.016 35.7333H117.831C117.638 36.397 117.113 37.0325 116.255 37.6414C115.398 38.2222 114.375 38.5125 113.185 38.5125C111.526 38.5125 110.255 38.0829 109.369 37.2266C108.484 36.3688 107.998 34.9866 107.915 33.0785ZM125.39 27.52C125.471 26.1377 125.818 24.9896 126.427 24.077C127.022 23.1764 127.816 22.4243 128.748 21.8785C129.724 21.3122 130.791 20.9192 131.901 20.717C133.074 20.4698 134.269 20.3447 135.468 20.3437C136.547 20.3437 137.64 20.4266 138.745 20.5925C139.852 20.7303 140.861 21.0222 141.773 21.4637C142.686 21.9051 143.433 22.5274 144.013 23.3303C144.594 24.1051 144.884 25.1422 144.884 26.4414V37.6C144.884 38.5674 144.941 39.4948 145.05 40.3792C145.161 41.2637 145.355 41.9274 145.631 42.3703H139.658C139.548 42.0423 139.451 41.7102 139.367 41.3748C139.312 41.017 139.271 40.6572 139.243 40.2962C138.33 41.2477 137.187 41.9477 135.924 42.3288C134.661 42.7147 133.346 42.9105 132.025 42.9096C131.003 42.9096 130.049 42.7851 129.163 42.5362C128.319 42.3079 127.529 41.913 126.84 41.3748C126.169 40.8403 125.63 40.1592 125.264 39.3837C124.905 38.5807 124.724 37.6266 124.724 36.5214C124.724 35.3037 124.932 34.3081 125.347 33.5348C125.791 32.7318 126.342 32.0977 127.006 31.6266C127.698 31.1555 128.473 30.8118 129.329 30.5896C130.201 30.3434 131.088 30.1495 131.984 30.0088C132.851 29.8728 133.723 29.7621 134.597 29.677C135.456 29.594 136.215 29.4696 136.878 29.3037C137.542 29.1377 138.068 28.9037 138.455 28.5985C138.843 28.2666 139.022 27.797 138.994 27.1881C138.994 26.5511 138.884 26.0548 138.662 25.6948C138.484 25.3241 138.194 25.0192 137.833 24.8237C137.47 24.5917 137.058 24.4495 136.63 24.4088C136.15 24.3227 135.664 24.281 135.178 24.2844C134.016 24.2844 133.104 24.5333 132.44 25.0311C131.776 25.5288 131.39 26.3585 131.278 27.52H125.39ZM138.994 31.8755C138.745 32.0977 138.428 32.2755 138.04 32.4148C137.681 32.5259 137.28 32.6222 136.837 32.7051C136.397 32.792 135.955 32.8612 135.51 32.9125C135.038 32.968 134.567 33.0372 134.099 33.12C133.651 33.2042 133.207 33.315 132.772 33.4518C132.357 33.5896 131.984 33.7837 131.652 34.0325C131.348 34.2548 131.099 34.5437 130.905 34.9037C130.713 35.2622 130.615 35.7185 130.615 36.2725C130.615 36.797 130.713 37.24 130.905 37.6C131.099 37.9585 131.361 38.2488 131.693 38.4711C132.025 38.6637 132.413 38.8029 132.855 38.8859C133.299 38.9688 133.754 39.0103 134.224 39.0103C135.385 39.0103 136.284 38.8177 136.92 38.4296C137.557 38.0414 138.027 37.5851 138.33 37.0607C138.635 36.5081 138.815 35.954 138.87 35.4014C138.953 34.8488 138.994 34.4059 138.994 34.074V31.8755ZM155.68 20.9244V14.4948H149.79V20.9244H146.221V24.8651H149.79V37.517C149.79 38.5955 149.969 39.4666 150.329 40.1303C150.687 40.794 151.172 41.3051 151.781 41.6651C152.416 42.0237 153.135 42.2592 153.938 42.3703C154.767 42.5081 155.638 42.5777 156.551 42.5777C157.132 42.5777 157.726 42.5629 158.335 42.5362C158.942 42.5081 159.496 42.4533 159.994 42.3703V37.8074C159.706 37.8642 159.415 37.9057 159.123 37.9318C158.818 37.9585 158.501 37.9733 158.169 37.9733C157.173 37.9733 156.51 37.8074 156.178 37.4755C155.846 37.1437 155.68 36.48 155.68 35.4844V24.8651H159.994V20.9244H155.68ZM161.551 12.7525V42.3703H167.441V31.1288C167.441 28.9437 167.801 27.3807 168.52 26.4414C169.24 25.4725 170.401 24.9896 172.004 24.9896C173.415 24.9896 174.397 25.4325 174.95 26.317C175.504 27.1733 175.779 28.4874 175.779 30.2577V42.3703H181.67V29.1792C181.67 27.8518 181.545 26.6488 181.296 25.5703C181.075 24.4637 180.674 23.5377 180.093 22.7911C179.513 22.0162 178.711 21.4222 177.687 21.0074C176.692 20.5644 175.406 20.3437 173.83 20.3437C172.724 20.3437 171.59 20.634 170.428 21.2148C169.267 21.7674 168.313 22.6666 167.566 23.9111H167.441V12.7525H161.551ZM199.332 29.3451H189.75C189.788 28.8683 189.872 28.3961 189.998 27.9348C190.164 27.4088 190.427 26.9125 190.787 26.4414C191.197 25.953 191.706 25.5571 192.28 25.28C192.915 24.9481 193.704 24.7822 194.644 24.7822C196.083 24.7822 197.147 25.1688 197.838 25.9437C198.557 26.7185 199.055 27.8518 199.332 29.3451ZM189.75 33.0785H205.222C205.338 31.4764 205.198 29.8662 204.807 28.3081C204.445 26.8406 203.797 25.459 202.899 24.2429C202.036 23.0491 200.898 22.0814 199.581 21.4222C198.225 20.7037 196.635 20.3437 194.81 20.3437C193.179 20.3437 191.686 20.634 190.33 21.2148C189.032 21.7753 187.86 22.5938 186.887 23.6207C185.903 24.643 185.14 25.8575 184.647 27.1881C184.113 28.6206 183.846 30.1391 183.859 31.6681C183.859 33.3274 184.108 34.8474 184.606 36.2311C185.095 37.5544 185.842 38.7671 186.804 39.7985C187.771 40.812 188.946 41.6045 190.247 42.1214C191.603 42.6474 193.123 42.9096 194.81 42.9096C197.244 42.9096 199.318 42.357 201.033 41.2503C202.747 40.1437 204.019 38.3051 204.849 35.7333H199.664C199.47 36.397 198.945 37.0325 198.087 37.6414C197.23 38.2222 196.207 38.5125 195.018 38.5125C193.358 38.5125 192.086 38.0829 191.201 37.2266C190.317 36.3688 189.833 34.9866 189.75 33.0785ZM207.471 20.9244V42.3703H213.361V32.7051C213.361 31.7377 213.458 30.8385 213.652 30.0088C213.846 29.1792 214.163 28.4592 214.606 27.8518C215.075 27.2148 215.684 26.7185 216.431 26.3585C217.178 25.9985 218.09 25.8192 219.169 25.8192C219.529 25.8192 219.902 25.8459 220.289 25.9022C220.675 25.9288 221.007 25.9703 221.284 26.0266V20.5511C220.868 20.4212 220.435 20.3514 219.998 20.3437C219.267 20.3414 218.539 20.4534 217.841 20.6755C217.15 20.8977 216.501 21.2148 215.892 21.6296C215.277 22.022 214.73 22.5125 214.274 23.0814C213.808 23.6281 213.43 24.2438 213.154 24.9066H213.071V20.9244H207.471ZM229.484 36.8948V18.2281H234.13C235.735 18.2281 237.075 18.4637 238.154 18.9333C239.261 19.3762 240.145 20.0251 240.809 20.8829C241.473 21.7407 241.942 22.7777 242.219 23.994C242.523 25.1822 242.675 26.5244 242.675 28.0177C242.675 29.6488 242.468 31.0311 242.053 32.1659C241.638 33.2992 241.086 34.2251 240.394 34.9451C239.731 35.6182 238.922 36.1292 238.03 36.4385C237.149 36.742 236.223 36.8963 235.292 36.8948H229.484ZM222.972 12.7525V42.3703H235.748C238.016 42.3703 239.979 41.997 241.638 41.2503C243.326 40.4755 244.721 39.4251 245.828 38.0977C246.961 36.7703 247.806 35.194 248.358 33.3688C248.911 31.5437 249.188 29.5525 249.188 27.3955C249.188 24.9333 248.843 22.7911 248.151 20.9659C247.487 19.1407 246.547 17.6192 245.33 16.4029C244.131 15.1797 242.67 14.2437 241.058 13.6651C239.427 13.0577 237.656 12.7525 235.748 12.7525H222.972ZM266.287 29.3451H256.705C256.732 28.9303 256.815 28.4592 256.954 27.9348C257.12 27.4088 257.382 26.9125 257.742 26.4414C258.152 25.953 258.661 25.5571 259.235 25.28C259.871 24.9481 260.659 24.7822 261.6 24.7822C263.037 24.7822 264.102 25.1688 264.794 25.9437C265.513 26.7185 266.01 27.8518 266.287 29.3451ZM256.705 33.0785H272.178C272.293 31.4764 272.153 29.8663 271.763 28.3081C271.4 26.8408 270.752 25.4594 269.855 24.2429C268.992 23.0494 267.853 22.0818 266.536 21.4222C265.181 20.7037 263.591 20.3437 261.766 20.3437C260.133 20.3437 258.64 20.634 257.286 21.2148C255.987 21.7753 254.816 22.5938 253.843 23.6207C252.858 24.6422 252.095 25.8569 251.603 27.1881C251.068 28.6206 250.801 30.1391 250.815 31.6681C250.815 33.3274 251.064 34.8474 251.561 36.2311C252.05 37.5547 252.797 38.7675 253.76 39.7985C254.726 40.8123 255.901 41.6048 257.203 42.1214C258.557 42.6474 260.078 42.9096 261.766 42.9096C264.198 42.9096 266.272 42.357 267.988 41.2503C269.702 40.1437 270.975 38.3051 271.804 35.7333H266.619C266.425 36.397 265.899 37.0325 265.043 37.6414C264.185 38.2222 263.161 38.5125 261.973 38.5125C260.314 38.5125 259.041 38.0829 258.157 37.2266C257.271 36.3688 256.788 34.9866 256.705 33.0785ZM286.29 42.3703L293.55 20.9244H287.701L283.179 35.5674H283.096L278.575 20.9244H272.394L279.736 42.3703H286.29Z" fill="#1D1D1D"/>
</svg>
