<svg width="251" height="67" viewBox="0 0 251 67" fill="none" xmlns="http://www.w3.org/2000/svg">
<path fill-rule="evenodd" clip-rule="evenodd" d="M32.5926 66.1481C50.5926 66.1481 65.1852 51.5555 65.1852 33.5555C65.1852 15.5555 50.5926 0.962891 32.5926 0.962891C14.5926 0.962891 0 15.5555 0 33.5555C0 51.5555 14.5926 66.1481 32.5926 66.1481ZM42.76 16.1451C43.2548 14.3881 41.5496 13.3481 39.9911 14.4577L18.24 29.9555C16.5511 31.1584 16.8178 33.557 18.64 33.557H24.3674V33.5125H35.5304L26.4341 36.7214L22.4252 50.9673C21.9304 52.7244 23.6356 53.7644 25.1941 52.6547L46.9452 37.1584C48.6341 35.9555 48.3674 33.557 46.5452 33.557H37.8593L42.76 16.1451Z" fill="#1D1D1D"/>
<path d="M82.0444 48.237V43.0814H86.1333V22.2814H82.0444V17.1259H98.0444C99.9407 17.1259 101.585 17.4518 102.978 18.1036C104.4 18.7259 105.496 19.6296 106.267 20.8147C107.067 21.9703 107.467 23.3629 107.467 24.9925V25.437C107.467 26.8592 107.2 28.0296 106.667 28.9481C106.133 29.837 105.496 30.5333 104.756 31.037C104.044 31.511 103.363 31.8518 102.711 32.0592V32.8592C103.363 33.037 104.074 33.3777 104.844 33.8814C105.615 34.3555 106.267 35.0518 106.8 35.9703C107.363 36.8888 107.644 38.0888 107.644 39.5703V40.0147C107.644 41.7333 107.244 43.2147 106.444 44.4592C105.644 45.674 104.533 46.6073 103.111 47.2592C101.719 47.911 100.089 48.237 98.2222 48.237H82.0444ZM92 42.9036H97.5111C98.7852 42.9036 99.8074 42.5925 100.578 41.9703C101.378 41.3481 101.778 40.4592 101.778 39.3036V38.8592C101.778 37.7036 101.393 36.8147 100.622 36.1925C99.8519 35.5703 98.8148 35.2592 97.5111 35.2592H92V42.9036ZM92 29.9259H97.4222C98.637 29.9259 99.6296 29.6147 100.4 28.9925C101.2 28.3703 101.6 27.511 101.6 26.4147V25.9703C101.6 24.8444 101.215 23.9851 100.444 23.3925C99.6741 22.7703 98.6667 22.4592 97.4222 22.4592H92V29.9259ZM120.892 48.8592C118.699 48.8592 116.729 48.4147 114.981 47.5259C113.259 46.6619 111.824 45.3192 110.847 43.6592C109.84 41.9703 109.336 39.9407 109.336 37.5703V36.8592C109.336 34.4888 109.84 32.4592 110.847 30.7703C111.824 29.1103 113.259 27.7676 114.981 26.9036C116.729 26.0147 118.699 25.5703 120.892 25.5703C123.084 25.5703 125.055 26.0147 126.803 26.9036C128.524 27.7676 129.96 29.1103 130.936 30.7703C131.944 32.4592 132.447 34.4888 132.447 36.8592V37.5703C132.447 39.9407 131.944 41.9703 130.936 43.6592C129.96 45.3192 128.524 46.6619 126.803 47.5259C125.055 48.4147 123.084 48.8592 120.892 48.8592ZM120.892 43.8814C122.61 43.8814 124.033 43.3333 125.159 42.237C126.284 41.111 126.847 39.511 126.847 37.437V36.9925C126.847 34.9184 126.284 33.3333 125.159 32.237C124.062 31.111 122.64 30.5481 120.892 30.5481C119.173 30.5481 117.751 31.111 116.625 32.237C115.499 33.3333 114.936 34.9184 114.936 36.9925V37.437C114.936 39.511 115.499 41.111 116.625 42.237C117.751 43.3333 119.173 43.8814 120.892 43.8814ZM135.393 48.237V17.1259H140.993V48.237H135.393ZM153.422 48.237C151.97 48.237 150.785 47.7925 149.867 46.9036C148.978 45.9851 148.533 44.7703 148.533 43.2592V30.8147H143.022V26.1925H148.533V19.3481H154.133V26.1925H160.178V30.8147H154.133V42.2814C154.133 43.1703 154.548 43.6147 155.378 43.6147H159.644V48.237H153.422ZM172.179 48.8592C169.305 48.8592 166.95 48.237 165.113 46.9925C163.276 45.7481 162.164 43.9703 161.779 41.6592L166.935 40.3259C167.142 41.3629 167.483 42.1777 167.957 42.7703C168.461 43.3629 169.068 43.7925 169.779 44.0592C170.52 44.2962 171.32 44.4147 172.179 44.4147C173.483 44.4147 174.446 44.1925 175.068 43.7481C175.69 43.274 176.001 42.6962 176.001 42.0147C176.001 41.3333 175.705 40.8147 175.113 40.4592C174.52 40.074 173.572 39.7629 172.268 39.5259L171.024 39.3036C169.483 39.0073 168.076 38.6073 166.801 38.1036C165.527 37.5703 164.505 36.8444 163.735 35.9259C162.964 35.0073 162.579 33.8222 162.579 32.3703C162.579 30.1777 163.379 28.5036 164.979 27.3481C166.579 26.1629 168.683 25.5703 171.29 25.5703C173.75 25.5703 175.794 26.1184 177.424 27.2147C179.053 28.311 180.12 29.7481 180.624 31.5259L175.424 33.1259C175.187 31.9999 174.698 31.1999 173.957 30.7259C173.246 30.2518 172.357 30.0147 171.29 30.0147C170.224 30.0147 169.409 30.2073 168.846 30.5925C168.283 30.9481 168.001 31.4518 168.001 32.1036C168.001 32.8147 168.298 33.3481 168.89 33.7036C169.483 34.0296 170.283 34.2814 171.29 34.4592L172.535 34.6814C174.194 34.9777 175.69 35.3777 177.024 35.8814C178.387 36.3555 179.453 37.0518 180.224 37.9703C181.024 38.8592 181.424 40.074 181.424 41.6147C181.424 43.9259 180.579 45.7184 178.89 46.9925C177.231 48.237 174.994 48.8592 172.179 48.8592ZM184.11 48.237V17.1259H189.71V28.9036H190.51C190.747 28.4296 191.117 27.9555 191.621 27.4814C192.124 27.0073 192.791 26.6222 193.621 26.3259C194.48 25.9999 195.561 25.837 196.865 25.837C198.584 25.837 200.08 26.237 201.354 27.037C202.658 27.8073 203.665 28.8888 204.376 30.2814C205.087 31.6444 205.443 33.2444 205.443 35.0814V48.237H199.843V35.5259C199.843 33.8666 199.428 32.6222 198.599 31.7925C197.799 30.9629 196.643 30.5481 195.132 30.5481C193.413 30.5481 192.08 31.1259 191.132 32.2814C190.184 33.4073 189.71 34.9925 189.71 37.037V48.237H184.11ZM209.274 48.237V26.1925H214.874V48.237H209.274ZM212.074 23.6147C211.067 23.6147 210.207 23.2888 209.496 22.637C208.815 21.9851 208.474 21.1259 208.474 20.0592C208.474 18.9925 208.815 18.1333 209.496 17.4814C210.207 16.8296 211.067 16.5036 212.074 16.5036C213.111 16.5036 213.97 16.8296 214.652 17.4814C215.333 18.1333 215.674 18.9925 215.674 20.0592C215.674 21.1259 215.333 21.9851 214.652 22.637C213.97 23.2888 213.111 23.6147 212.074 23.6147ZM222.502 48.237V30.8147H216.902V26.1925H222.502V22.1036C222.502 20.5925 222.947 19.3925 223.836 18.5036C224.754 17.5851 225.939 17.1259 227.391 17.1259H233.169V21.7481H229.347C228.517 21.7481 228.102 22.1925 228.102 23.0814V26.1925H233.88V30.8147H228.102V48.237H222.502Z" fill="#1D1D1D"/>
<path d="M244.003 48.237C242.551 48.237 241.366 47.7925 240.447 46.9036C239.559 45.9851 239.114 44.7703 239.114 43.2592V30.8147H233.603V26.1925H239.114V19.3481H244.714V26.1925H250.759V30.8147H244.714V42.2814C244.714 43.1703 245.129 43.6147 245.959 43.6147H250.225V48.237H244.003Z" fill="#1D1D1D"/>
</svg>
