<svg width="292" height="67" viewBox="0 0 292 67" fill="none" xmlns="http://www.w3.org/2000/svg">
<path d="M45.2597 0.962891H20.2834L0.179688 21.0681V46.0444L20.2849 66.1481H45.2612L65.3649 46.0429V21.0666L45.2597 0.962891ZM23.7412 46.357L10.8612 33.477L23.7412 20.597C28.6093 15.7273 36.6212 15.7273 41.4893 20.597L54.3693 33.477L41.4893 46.357C36.6212 51.2266 28.7664 51.2266 23.7412 46.357ZM94.0167 48.7259C98.0167 48.7259 101.306 46.6814 102.328 43.6147V48.3703H108.239V36.3703C108.239 33.6592 106.106 31.3481 103.217 31.3481H94.7723V36.3703H100.772C101.528 36.3703 102.017 36.8592 102.017 37.6147C102.017 40.5036 98.1945 43.3036 94.3278 43.3036C89.1723 43.3036 85.0834 39.2592 85.0834 32.8147C85.0834 26.3703 89.1723 22.637 94.4612 22.637C98.4612 22.637 101.217 24.8147 101.706 28.1481H108.328C107.928 21.4814 102.328 16.9036 94.5056 16.9036C86.2834 16.9036 78.7278 22.1925 78.7278 32.8147C78.7278 43.437 86.0612 48.7259 94.0167 48.7259ZM110.775 48.3703H116.953V16.237H110.775V48.3703ZM130.279 48.7259C137.168 48.7259 142.101 43.837 142.101 37.1703C142.101 30.5036 137.168 25.6147 130.279 25.6147C123.39 25.6147 118.457 30.5036 118.457 37.1703C118.457 43.837 123.39 48.7259 130.279 48.7259ZM130.279 43.3925C126.946 43.3925 124.679 40.8592 124.679 37.1703C124.679 33.437 126.946 30.9036 130.279 30.9036C133.612 30.9036 135.879 33.437 135.879 37.1703C135.879 40.8592 133.612 43.3925 130.279 43.3925ZM155.925 48.7259C162.547 48.7259 166.503 44.1481 166.503 37.1703C166.503 30.1925 162.547 25.6147 156.014 25.6147C153.214 25.6147 151.036 26.6814 149.792 28.3259V16.237H143.614V48.3703H149.792V45.9259C151.036 47.6592 153.347 48.7259 155.925 48.7259ZM154.947 43.3925C151.614 43.3925 149.436 40.9036 149.436 37.1703C149.436 33.3925 151.614 30.9036 154.947 30.9036C158.192 30.9036 160.414 33.3925 160.414 37.1703C160.414 40.9036 158.192 43.3925 154.947 43.3925ZM176.845 25.6147C170.712 25.6147 167.067 29.2147 166.8 33.7036H172.312C172.4 31.837 173.778 30.1481 176.489 30.1481C179.023 30.1481 180.489 31.437 180.489 33.3036C180.489 34.237 179.912 34.9481 178.8 34.9481H175.023C170.134 34.9481 166.845 37.6147 166.845 42.0147C166.845 45.837 169.823 48.7259 174.178 48.7259C177.245 48.7259 179.734 47.3481 180.489 45.2592V48.3703H186.623V33.9703C186.623 28.9036 182.489 25.6147 176.845 25.6147ZM175.734 44.237C174 44.237 172.756 43.2147 172.756 41.7481C172.756 40.0147 174.089 38.8592 175.956 38.8592H180.489V39.1703C180.489 42.0147 178.756 44.237 175.734 44.237ZM188.996 48.3703H195.174V16.237H188.996V48.3703ZM198.455 48.3703H211.166C217.744 48.3703 222.277 44.9925 222.277 39.0814C222.277 34.9925 219.877 32.5036 217.033 31.3925C218.855 30.4147 220.677 28.1925 220.677 25.2592C220.677 20.0592 216.455 17.2592 210.811 17.2592H198.455V48.3703ZM205.033 29.1259V22.5481H210.189C213.166 22.5481 214.5 23.7481 214.5 25.837C214.5 27.9259 213.166 29.1259 210.322 29.1259H205.033ZM205.033 42.5925V34.7703H210.589C214.277 34.7703 215.922 36.1925 215.922 38.7259C215.922 41.2592 214.277 42.5925 210.589 42.5925H205.033ZM233.026 25.6147C226.892 25.6147 223.248 29.2147 222.981 33.7036H228.492C228.581 31.837 229.959 30.1481 232.67 30.1481C235.203 30.1481 236.67 31.437 236.67 33.3036C236.67 34.237 236.092 34.9481 234.981 34.9481H231.203C226.315 34.9481 223.026 37.6147 223.026 42.0147C223.026 45.837 226.003 48.7259 230.359 48.7259C233.426 48.7259 235.915 47.3481 236.67 45.2592V48.3703H242.803V33.9703C242.803 28.9036 238.67 25.6147 233.026 25.6147ZM231.915 44.237C230.181 44.237 228.937 43.2147 228.937 41.7481C228.937 40.0147 230.27 38.8592 232.137 38.8592H236.67V39.1703C236.67 42.0147 234.937 44.237 231.915 44.237ZM244.821 48.3703H251.043V36.1036C251.043 33.2147 252.955 31.1259 255.666 31.1259C258.243 31.1259 259.977 33.0814 259.977 35.7925V48.3703H266.199V34.4147C266.199 29.2592 262.91 25.6147 257.843 25.6147C254.777 25.6147 252.288 26.9036 251.043 29.0814V25.9703H244.821V48.3703ZM283.932 48.3703H291.399L281.755 34.7703L290.688 25.9703H282.866L275.088 33.6147V16.237H268.866V48.3703H275.088V41.3481L277.577 38.9036L283.932 48.3703Z" fill="#1D1D1D"/>
</svg>
