<svg width="247" height="72" viewBox="0 0 247 72" fill="none" xmlns="http://www.w3.org/2000/svg">
<g clip-path="url(#clip0_2351_11196)">
<path d="M32.9954 66.2954C49.7685 66.2954 63.3657 52.6982 63.3657 35.9251C63.3657 19.152 49.7685 5.55469 32.9954 5.55469C16.2223 5.55469 2.625 19.152 2.625 35.9251C2.625 52.6982 16.2223 66.2954 32.9954 66.2954Z" stroke="#1D1D1D" stroke-width="4.44444"/>
<path d="M45.0428 47.971C38.9094 54.1043 31.9628 58.1073 25.7761 59.6984C19.5331 61.3043 14.5006 60.3799 11.5213 57.3991C8.54056 54.4199 7.61611 49.3873 9.22204 43.1443C10.8131 36.9577 14.8161 30.0095 20.9494 23.8777C27.0813 17.7443 34.0294 13.7414 40.2161 12.1502C46.4591 10.5458 51.4902 11.4688 54.4709 14.4495C57.4502 17.4288 58.3746 22.4614 56.7702 28.7043C55.1791 34.891 51.1746 41.8391 45.0428 47.971Z" stroke="#1D1D1D" stroke-width="4.44444"/>
<path d="M45.0413 23.8777C51.1746 30.011 55.1776 36.9577 56.7687 43.1443C58.3746 49.3873 57.4502 54.4199 54.4694 57.3991C51.4902 60.3799 46.4576 61.3043 40.2146 59.6984C34.028 58.1073 27.0798 54.1043 20.948 47.971C14.8146 41.8391 10.8117 34.891 9.22056 28.7043C7.61611 22.4614 8.53907 17.4302 11.5198 14.4495C14.4991 11.4702 19.5317 10.5458 25.7746 12.1502C31.9613 13.7414 38.9094 17.7458 45.0413 23.8777Z" stroke="#1D1D1D" stroke-width="4.44444"/>
<path d="M93.5132 50.7252C100.491 50.7252 105.202 47.0808 105.202 41.2586C105.202 28.9474 88.8465 34.1919 88.8465 27.703C88.8465 25.8808 90.491 24.6363 93.1132 24.6363C96.091 24.6363 97.9576 26.2363 98.1799 28.6808H104.535C104.358 22.7697 99.8243 18.903 93.1132 18.903C86.8021 18.903 82.3576 22.5474 82.3576 27.703C82.3576 39.9252 98.491 35.2586 98.491 41.3474C98.491 43.703 96.491 44.9474 93.5132 44.9474C90.2243 44.9474 88.1354 42.9474 87.8687 39.7919H81.4688C81.7354 46.4141 86.4465 50.7252 93.5132 50.7252ZM106.713 59.4363H112.891V48.3697C114.091 49.8808 116.269 50.7252 118.802 50.7252C125.247 50.7252 129.602 46.1474 129.602 39.1697C129.602 32.1919 125.602 27.6141 119.335 27.6141C116.447 27.6141 114.224 28.6808 112.891 30.4141V27.9697H106.713V59.4363ZM118.047 45.3919C114.713 45.3919 112.535 42.903 112.535 39.1697C112.535 35.3919 114.713 32.903 118.047 32.903C121.291 32.903 123.513 35.3919 123.513 39.1697C123.513 42.903 121.291 45.3919 118.047 45.3919ZM131.097 50.3697H137.275V38.103C137.275 35.2141 139.186 33.1252 141.897 33.1252C144.475 33.1252 146.252 35.0808 146.252 37.7919V50.3697H152.43V36.4141C152.43 31.2586 149.141 27.6141 144.119 27.6141C141.008 27.6141 138.564 28.903 137.275 31.0808V18.2363H131.097V50.3697ZM169.712 42.7697C169.223 44.6808 167.578 45.6585 165.089 45.6585C161.978 45.6585 159.978 43.703 159.534 40.5474H175.623C175.667 40.0586 175.712 39.3919 175.712 38.5474C175.712 33.4363 172.556 27.6141 164.645 27.6141C157.045 27.6141 153.578 33.4363 153.578 39.1252C153.578 44.7697 157.489 50.7252 165.089 50.7252C170.601 50.7252 174.867 47.6141 175.756 42.7697H169.712ZM164.645 32.1474C167.623 32.1474 169.356 34.1474 169.534 36.6363H159.623C160.156 33.5252 161.845 32.1474 164.645 32.1474ZM191.915 33.1252V27.9697H188.727C186.015 27.9697 184.327 28.903 183.127 31.703V27.9697H176.904V50.3697H183.127V39.4808C183.127 35.6586 184.504 33.1252 187.571 33.1252H191.915ZM213.248 27.9697H207.026V40.2363C207.026 43.0808 205.115 45.2141 202.404 45.2141C199.87 45.2141 198.092 43.2586 198.092 40.5474V27.9697H191.915V41.9252C191.915 47.0363 195.204 50.7252 200.226 50.7252C203.292 50.7252 205.781 49.3919 207.026 47.2586V50.3697H213.248V27.9697ZM215.915 50.3697H222.092V18.2363H215.915V50.3697ZM239.729 42.7697C239.241 44.6808 237.596 45.6585 235.107 45.6585C231.996 45.6585 229.996 43.703 229.552 40.5474H245.641C245.685 40.0586 245.729 39.3919 245.729 38.5474C245.729 33.4363 242.574 27.6141 234.663 27.6141C227.063 27.6141 223.596 33.4363 223.596 39.1252C223.596 44.7697 227.507 50.7252 235.107 50.7252C240.618 50.7252 244.885 47.6141 245.774 42.7697H239.729ZM234.663 32.1474C237.641 32.1474 239.374 34.1474 239.552 36.6363H229.641C230.174 33.5252 231.863 32.1474 234.663 32.1474Z" fill="#1D1D1D"/>
</g>
<defs>
<clipPath id="clip0_2351_11196">
<rect width="245.926" height="71.1111" fill="white" transform="translate(0.402344)"/>
</clipPath>
</defs>
</svg>
