<svg width="248" height="62" viewBox="0 0 248 62" fill="none" xmlns="http://www.w3.org/2000/svg">
<path fill-rule="evenodd" clip-rule="evenodd" d="M29.8911 0.113306C29.1434 -0.0403727 28.3722 -0.0403727 27.6244 0.113306C26.7593 0.291083 25.9859 0.723676 25.3726 1.06886L25.2037 1.16219L4.37408 12.7326L4.1963 12.8318C3.54593 13.1903 2.72963 13.6407 2.1 14.3222C1.55729 14.9117 1.14666 15.6102 0.89556 16.3711C0.603708 17.2511 0.608153 18.1844 0.609634 18.9281V42.1815C0.608153 42.9237 0.603708 43.857 0.89556 44.7385C1.14666 45.4994 1.55729 46.1979 2.1 46.7874C2.72815 47.4689 3.54593 47.9192 4.19778 48.2777L4.37556 48.3755L25.2037 59.9459L25.3711 60.0407C25.9859 60.3844 26.7593 60.8185 27.623 60.9963C28.3712 61.1502 29.1429 61.1502 29.8911 60.9963C30.7563 60.8185 31.5296 60.3844 32.143 60.0407L32.3119 59.9474L53.1415 48.3755C53.2005 48.3426 53.2598 48.31 53.3193 48.2777C53.9696 47.9192 54.7859 47.4689 55.4156 46.7874C55.9583 46.1979 56.3689 45.4994 56.62 44.7385C56.9119 43.857 56.9074 42.9237 56.9059 42.1815V18.9281C56.9089 18.1844 56.9119 17.2511 56.62 16.3711C56.3689 15.6102 55.9583 14.9117 55.4156 14.3222C54.7874 13.6407 53.9696 13.1903 53.3178 12.8318L32.3119 1.16219L32.1444 1.06886C31.5296 0.723676 30.7563 0.291083 29.8926 0.113306H29.8911ZM27.937 6.08368C28.3637 5.84664 28.5815 5.72664 28.7444 5.64812L28.7578 5.64219L28.7726 5.64812C28.9341 5.72664 29.1519 5.84664 29.5785 6.08368L48.2941 16.4807L28.7578 27.334L9.22149 16.4807L27.937 6.08368ZM6.24075 21.2644L25.943 32.2111V53.9177L7.10889 43.454C6.65852 43.2037 6.42741 43.0748 6.26741 42.9726L6.2526 42.9637V42.9489C6.24024 42.6256 6.23629 42.302 6.24075 41.9785V21.2644Z" fill="#1D1D1D"/>
<path d="M82.5207 39.9607H91.4822V45.2407H75.6822V17.1607H82.5222L82.5207 39.9607ZM97.7845 20.6007C96.5845 20.6007 95.5978 20.254 94.8244 19.5607C94.4632 19.2237 94.1769 18.8145 93.9839 18.3597C93.791 17.9049 93.6958 17.4147 93.7044 16.9207C93.7044 15.854 94.0778 14.974 94.8244 14.2807C95.5978 13.5607 96.5845 13.2007 97.7845 13.2007C98.9578 13.2007 99.9178 13.5607 100.664 14.2822C101.438 14.974 101.824 15.854 101.824 16.9207C101.824 17.9607 101.438 18.8407 100.664 19.5607C99.9178 20.254 98.9578 20.6007 97.7845 20.6007ZM101.184 22.9207V45.2422H94.3444V22.9207H101.184ZM114.221 22.6007C115.795 22.6007 117.168 22.9207 118.34 23.5607C119.54 24.2007 120.461 25.0422 121.101 26.0807V22.9207H127.941V45.2022C127.941 47.254 127.527 49.1074 126.701 50.7607C125.901 52.4407 124.661 53.774 122.981 54.7607C121.328 55.7474 119.261 56.2422 116.781 56.2422C113.475 56.2422 110.795 55.454 108.741 53.8807C106.688 52.334 105.515 50.2274 105.221 47.5607H111.981C112.195 48.414 112.701 49.0807 113.501 49.5607C114.301 50.0674 115.288 50.3207 116.461 50.3207C117.875 50.3207 118.995 49.9074 119.821 49.0807C120.675 48.2807 121.101 46.9874 121.101 45.2007V42.0422C120.435 43.0822 119.515 43.9355 118.341 44.6022C117.168 45.2422 115.793 45.5622 114.221 45.5622C112.381 45.5622 110.715 45.0955 109.221 44.1622C107.728 43.2022 106.54 41.8555 105.661 40.1222C104.808 38.3622 104.381 36.3355 104.381 34.0422C104.381 31.7489 104.808 29.7355 105.661 28.0022C106.541 26.2689 107.728 24.9355 109.221 24.0022C110.715 23.0689 112.381 22.6007 114.221 22.6007ZM121.101 34.0822C121.101 32.374 120.621 31.0274 119.661 30.0407C119.226 29.564 118.694 29.1855 118.101 28.9304C117.508 28.6752 116.867 28.5492 116.221 28.5607C114.861 28.5607 113.701 29.054 112.74 30.0422C111.807 31.0007 111.341 32.334 111.341 34.0422C111.341 35.7474 111.808 37.1089 112.741 38.1207C113.701 39.1074 114.86 39.6022 116.221 39.6022C117.581 39.6022 118.728 39.1074 119.661 38.1207C120.621 37.134 121.101 35.7874 121.101 34.0807V34.0822ZM146.21 22.6807C148.77 22.6807 150.823 23.534 152.37 25.2407C153.916 26.9207 154.69 29.2407 154.69 32.2007V45.2407H147.89V33.1222C147.89 31.6274 147.504 30.4674 146.73 29.6407C145.956 28.814 144.916 28.4007 143.61 28.4007C142.303 28.4007 141.263 28.8155 140.49 29.6407C139.716 30.4674 139.33 31.6274 139.33 33.1222V45.2407H132.491V15.6422H139.331V25.9237C140.024 24.9355 140.971 24.1489 142.171 23.5622C143.371 22.9755 144.719 22.6822 146.211 22.6822L146.21 22.6807ZM171.482 39.4407V45.2407H168.002C165.522 45.2407 163.589 44.6407 162.202 43.4407C160.816 42.214 160.122 40.2274 160.122 37.4807V28.6007H157.402V22.9207H160.122V17.4807H166.962V22.9207H171.442V28.6007H166.962V37.5607C166.962 38.2274 167.122 38.7074 167.442 39.0007C167.762 39.294 168.296 39.4407 169.042 39.4407H171.482ZM181.733 26.0807C182.373 25.0407 183.293 24.2007 184.493 23.5622C185.693 22.9207 187.066 22.6007 188.613 22.6007C190.453 22.6007 192.119 23.0674 193.613 24.0007C195.106 24.934 196.279 26.2674 197.133 28.0007C198.013 29.734 198.453 31.7489 198.453 34.0407C198.453 36.334 198.013 38.3607 197.133 40.1207C196.279 41.854 195.106 43.2022 193.613 44.1607C192.119 45.094 190.453 45.5607 188.613 45.5607C187.039 45.5607 185.666 45.254 184.493 44.6422C183.319 44.0007 182.399 43.1607 181.733 42.1207V45.2407H174.893V15.6422H181.733V26.0807ZM191.493 34.0407C191.493 32.334 191.013 31.0007 190.053 30.0407C189.119 29.054 187.959 28.5607 186.573 28.5607C185.213 28.5607 184.053 29.054 183.093 30.0422C182.159 31.0274 181.693 32.374 181.693 34.0807C181.693 35.7874 182.159 37.134 183.093 38.1207C184.053 39.1074 185.213 39.6022 186.573 39.6022C187.933 39.6022 189.093 39.1074 190.053 38.1207C191.013 37.1074 191.493 35.7474 191.493 34.0407ZM211.801 45.5607C209.614 45.5607 207.641 45.094 205.881 44.1607C204.16 43.2395 202.732 41.8536 201.761 40.1607C200.774 38.4274 200.281 36.4007 200.281 34.0807C200.281 31.7874 200.787 29.774 201.801 28.0407C202.771 26.3226 204.215 24.9201 205.961 24.0007C207.721 23.0674 209.694 22.6007 211.881 22.6007C214.067 22.6007 216.041 23.0674 217.801 24.0007C219.546 24.9201 220.991 26.3226 221.961 28.0407C222.974 29.774 223.481 31.7889 223.481 34.0807C223.481 36.374 222.961 38.4007 221.921 40.1607C220.933 41.8693 219.475 43.2578 217.721 44.1607C215.961 45.094 213.987 45.5607 211.801 45.5607ZM211.801 39.6407C213.107 39.6407 214.214 39.1607 215.121 38.2007C216.054 37.2407 216.521 35.8674 216.521 34.0822C216.521 32.294 216.067 30.9207 215.161 29.9607C214.751 29.4974 214.245 29.1286 213.679 28.88C213.113 28.6313 212.499 28.5087 211.881 28.5207C210.547 28.5207 209.441 29.0007 208.561 29.9607C207.681 30.894 207.241 32.2674 207.241 34.0807C207.241 35.8674 207.667 37.2407 208.521 38.2007C208.93 38.6641 209.436 39.0328 210.002 39.2815C210.569 39.5301 211.182 39.6527 211.801 39.6407ZM239.91 45.2422L235.63 39.0407L232.03 45.2407H224.63L231.99 33.8407L224.43 22.9222H232.11L236.39 29.0792L239.99 22.9192H247.39L239.91 34.1592L247.59 45.2407L239.91 45.2422Z" fill="#1D1D1D"/>
</svg>
