<svg width="51" height="51" viewBox="0 0 51 51" fill="none" xmlns="http://www.w3.org/2000/svg">
<g filter="url(#filter0_d_2356_5592)">
<rect x="3" y="2" width="45.2973" height="45.2973" rx="22.6486" fill="url(#paint0_linear_2356_5592)"/>
<rect x="3.56622" y="2.56622" width="44.1649" height="44.1649" rx="22.0824" stroke="url(#paint1_linear_2356_5592)" stroke-width="1.13243" style="mix-blend-mode:overlay"/>
<rect x="3.56622" y="2.56622" width="44.1649" height="44.1649" rx="22.0824" stroke="url(#paint2_linear_2356_5592)" stroke-width="1.13243" style="mix-blend-mode:overlay"/>
<rect x="3.56622" y="2.56622" width="44.1649" height="44.1649" rx="22.0824" stroke="url(#paint3_linear_2356_5592)" stroke-width="1.13243" style="mix-blend-mode:overlay"/>
<g clip-path="url(#clip0_2356_5592)">
<path d="M25.6475 27.9528H21.4009C20.0839 27.9528 19.4259 27.9528 18.8903 28.1147C18.2963 28.2949 17.7559 28.6188 17.317 29.0577C16.8781 29.4966 16.5542 30.037 16.374 30.631C16.2109 31.1666 16.2109 31.8257 16.2109 33.1427M32.2541 33.1427V27.4806M29.423 30.3117H35.0852M28.0075 20.4029C28.0075 21.5291 27.5601 22.6093 26.7637 23.4057C25.9673 24.2021 24.8871 24.6495 23.7609 24.6495C22.6346 24.6495 21.5544 24.2021 20.758 23.4057C19.9617 22.6093 19.5142 21.5291 19.5142 20.4029C19.5142 19.2766 19.9617 18.1965 20.758 17.4001C21.5544 16.6037 22.6346 16.1562 23.7609 16.1562C24.8871 16.1562 25.9673 16.6037 26.7637 17.4001C27.5601 18.1965 28.0075 19.2766 28.0075 20.4029Z" stroke="white" stroke-width="1.88776" stroke-linecap="round" stroke-linejoin="round"/>
<path d="M25.6475 27.9528H21.4009C20.0839 27.9528 19.4259 27.9528 18.8903 28.1147C18.2963 28.2949 17.7559 28.6188 17.317 29.0577C16.8781 29.4966 16.5542 30.037 16.374 30.631C16.2109 31.1666 16.2109 31.8257 16.2109 33.1427M32.2541 33.1427V27.4806M29.423 30.3117H35.0852M28.0075 20.4029C28.0075 21.5291 27.5601 22.6093 26.7637 23.4057C25.9673 24.2021 24.8871 24.6495 23.7609 24.6495C22.6346 24.6495 21.5544 24.2021 20.758 23.4057C19.9617 22.6093 19.5142 21.5291 19.5142 20.4029C19.5142 19.2766 19.9617 18.1965 20.758 17.4001C21.5544 16.6037 22.6346 16.1562 23.7609 16.1562C24.8871 16.1562 25.9673 16.6037 26.7637 17.4001C27.5601 18.1965 28.0075 19.2766 28.0075 20.4029Z" stroke="#F8FFFC" stroke-width="1.88776" stroke-linecap="round" stroke-linejoin="round"/>
</g>
</g>
<defs>
<filter id="filter0_d_2356_5592" x="0.735135" y="0.867568" width="49.8266" height="49.8266" filterUnits="userSpaceOnUse" color-interpolation-filters="sRGB">
<feFlood flood-opacity="0" result="BackgroundImageFix"/>
<feColorMatrix in="SourceAlpha" type="matrix" values="0 0 0 0 0 0 0 0 0 0 0 0 0 0 0 0 0 0 127 0" result="hardAlpha"/>
<feOffset dy="1.13243"/>
<feGaussianBlur stdDeviation="1.13243"/>
<feComposite in2="hardAlpha" operator="out"/>
<feColorMatrix type="matrix" values="0 0 0 0 0.0627451 0 0 0 0 0.0941176 0 0 0 0 0.156863 0 0 0 0.05 0"/>
<feBlend mode="normal" in2="BackgroundImageFix" result="effect1_dropShadow_2356_5592"/>
<feBlend mode="normal" in="SourceGraphic" in2="effect1_dropShadow_2356_5592" result="shape"/>
</filter>
<linearGradient id="paint0_linear_2356_5592" x1="7.5" y1="0.719482" x2="48" y2="63.7195" gradientUnits="userSpaceOnUse">
<stop stop-color="#1D1D1D"/>
<stop offset="1" stop-color="#838383"/>
</linearGradient>
<linearGradient id="paint1_linear_2356_5592" x1="-16.1892" y1="95.7465" x2="37.6004" y2="103.974" gradientUnits="userSpaceOnUse">
<stop stop-color="white" stop-opacity="0"/>
<stop offset="0.565" stop-color="white"/>
<stop offset="1" stop-color="white" stop-opacity="0"/>
</linearGradient>
<linearGradient id="paint2_linear_2356_5592" x1="-16.1892" y1="95.7465" x2="37.6004" y2="103.974" gradientUnits="userSpaceOnUse">
<stop stop-color="white" stop-opacity="0"/>
<stop offset="0.565" stop-color="white"/>
<stop offset="1" stop-color="white" stop-opacity="0"/>
</linearGradient>
<linearGradient id="paint3_linear_2356_5592" x1="-16.1892" y1="95.7465" x2="37.6004" y2="103.974" gradientUnits="userSpaceOnUse">
<stop stop-color="white" stop-opacity="0"/>
<stop offset="0.565" stop-color="white"/>
<stop offset="1" stop-color="white" stop-opacity="0"/>
</linearGradient>
<clipPath id="clip0_2356_5592">
<rect width="22.6486" height="22.6486" fill="white" transform="translate(14.3242 13.3242)"/>
</clipPath>
</defs>
</svg>
